<svg width="390" height="450" viewBox="0 0 390 450" fill="none" xmlns="http://www.w3.org/2000/svg">
<path d="M81.8906 65.2352L97.5534 56.2141L195.036 0L292.518 56.2141L390 112.503V222.62L325.857 185.492V149.482L260.446 111.757L195.036 73.9581L129.625 111.757L81.8906 139.268V65.2352Z" fill="#DC0000"/>
<path d="M212.636 365.763L260.296 338.253L325.706 300.528V259.523L389.849 296.651V337.507L292.367 393.796L276.779 402.817L212.636 365.763Z" fill="#DC0000"/>
<path d="M194.965 450L97.4824 393.786L0 337.497V224.994V112.491L64.1429 75.4373V149.47V224.994V255.785V300.518L129.554 338.243L130.225 338.615L194.965 376.042L259.108 413.021L194.965 450Z" fill="black"/>
<path d="M146.034 85.1462H81.8906V288.307H146.034V85.1462Z" fill="#DC0000"/>
<path d="M309.002 347.209L276.93 402.752L81.8906 288.311L113.962 232.843L309.002 347.209Z" fill="#DC0000"/>
<path d="M389.916 327.467L203.305 219.362V145.33L389.916 253.434V327.467Z" fill="#DC0000"/>
</svg>
