<svg width="124" height="75" viewBox="0 0 124 75" fill="none" xmlns="http://www.w3.org/2000/svg">
<path d="M51.5869 5.93909L53.0089 5.1178L61.8589 0L70.7089 5.1178L79.5589 10.2424V20.2676L73.7356 16.8874V13.609L67.7973 10.1745L61.8589 6.73323L55.9205 10.1745L51.5869 12.6791V5.93909Z" fill="#DC0000"/>
<path d="M63.4609 33.2967L67.7878 30.7921L73.7261 27.3577V23.6245L79.5494 27.0047V30.7243L70.6994 35.8489L69.2842 36.6701L63.4609 33.2967Z" fill="#DC0000"/>
<path d="M61.8538 40.9678L53.0038 35.85L44.1538 30.7254V20.483V10.2406L49.9771 6.86716V13.6072V20.483V23.2862V27.3587L55.9155 30.7932L55.9764 30.8272L61.8538 34.2345L67.6771 37.6011L61.8538 40.9678Z" fill="black"/>
<path d="M57.4102 7.75024H51.5869V26.2463H57.4102V7.75024Z" fill="#DC0000"/>
<path d="M72.2054 31.611L69.2937 36.6677L51.5869 26.2488L54.4985 21.1989L72.2054 31.611Z" fill="#DC0000"/>
<path d="M79.5544 29.8108L62.6128 19.9689V13.2289L79.5544 23.0708V29.8108Z" fill="#DC0000"/>
<path d="M14.7668 75H0V57.7304H3.93694V71.053H14.7603L14.7668 75Z" fill="black"/>
<path d="M34.1971 74.9956H24.1095L22.3863 71.0487H28.04L24.9679 64.0994L20.1597 74.9956H15.7451V71.0487H17.4942L23.3738 57.726H26.5749L34.1971 74.9956Z" fill="black"/>
<path d="M51.1708 74.9956H47.2338L39.1147 65.1994V74.9956H35.1777V57.726H39.1211L47.2338 67.5093V57.726H51.1708V74.9956Z" fill="black"/>
<path d="M69.3673 74.9944H60.7577C58.3762 74.9944 56.3496 74.1532 54.6651 72.4644C52.9806 70.7821 52.1416 68.7439 52.1416 66.3563C52.1416 63.9752 52.9806 61.937 54.6651 60.2482C56.3432 58.5659 58.3762 57.7183 60.7577 57.7183H69.3673V61.6652H60.7577C59.4604 61.6652 58.3568 62.1246 57.4468 63.037C56.5368 63.9493 56.0785 65.0558 56.0785 66.3563C56.0785 67.6569 56.5368 68.7633 57.4468 69.6757C58.3568 70.588 59.4604 71.0474 60.7577 71.0474H65.4304V68.3363H62.9714L61.2482 64.3893H69.3673V74.9944Z" fill="#DC0000"/>
<path d="M88.8187 74.9956H78.7311L77.0079 71.0487H82.6616L79.5895 64.0994L74.7812 74.9956H70.3667V71.0487H72.1157L77.9953 57.726H81.1965L88.8187 74.9956Z" fill="#DC0000"/>
<path d="M108.253 74.9956H104.316V67.1729L100.257 74.9892H97.7978L93.7382 67.1729V74.9892H89.8013V57.726H93.7447L99.0305 68.3311L104.316 57.726H108.26V74.9956H108.253Z" fill="#DC0000"/>
<path d="M124 74.9956H109.24V57.726H124V61.673H113.177V64.3841H121.541V68.3311H113.177V71.0422H124V74.9956Z" fill="#DC0000"/>
</svg>
