<svg width="87" height="13" viewBox="0 0 87 13" fill="none" xmlns="http://www.w3.org/2000/svg">
<path d="M10.2433 12.5946H0V0.645569H2.73096V9.86368H10.2389L10.2433 12.5946Z" fill="black"/>
<path d="M23.7269 12.5928H16.7294L15.5341 9.86188H19.4559L17.3249 5.0536L13.9895 12.5928H10.9272V9.86188H12.1405L16.219 0.643768H18.4396L23.7269 12.5928Z" fill="black"/>
<path d="M35.5034 12.5928H32.7724L27.1404 5.81468V12.5928H24.4094V0.643768H27.1449L32.7724 7.41297V0.643768H35.5034V12.5928Z" fill="black"/>
<path d="M48.1268 12.5883H42.1545C40.5025 12.5883 39.0967 12.0063 37.9282 10.8378C36.7597 9.6738 36.1777 8.26355 36.1777 6.61154C36.1777 4.96401 36.7597 3.55376 37.9282 2.38527C39.0922 1.22125 40.5025 0.634766 42.1545 0.634766H48.1268V3.36573H42.1545C41.2546 3.36573 40.4891 3.68359 39.8578 4.31485C39.2266 4.9461 38.9087 5.71167 38.9087 6.61154C38.9087 7.51141 39.2266 8.27698 39.8578 8.90823C40.4891 9.53949 41.2546 9.85735 42.1545 9.85735H45.3958V7.9815H43.6901L42.4948 5.25054H48.1268V12.5883Z" fill="#DC0000"/>
<path d="M61.6178 12.5928H54.6203L53.4249 9.86188H57.3468L55.2157 5.0536L51.8804 12.5928H48.8181V9.86188H50.0314L54.1099 0.643768H56.3305L61.6178 12.5928Z" fill="#DC0000"/>
<path d="M75.097 12.5928H72.3661V7.18016L69.5501 12.5884H67.8443L65.0283 7.18016V12.5884H62.2974V0.643768H65.0328L68.6994 7.98154L72.3661 0.643768H75.1015V12.5928H75.097Z" fill="#DC0000"/>
<path d="M86.0184 12.5928H75.7795V0.643768H86.0184V3.37473H78.5105V5.25058H84.3127V7.98154H78.5105V9.8574H86.0184V12.5928Z" fill="#DC0000"/>
</svg>
