<svg width="24" height="24" viewBox="0 0 24 24" fill="none" xmlns="http://www.w3.org/2000/svg">
<g opacity="0.5">
<path d="M8.81704 5.00059C8.81704 4.67444 8.94908 4.38091 9.18015 4.1526C9.41123 3.92429 9.70832 3.79383 10.0384 3.79383H14.2968C14.6269 3.79383 14.924 3.92429 15.155 4.1526C15.3861 4.38091 15.5182 4.67444 15.5182 5.00059V8.00662C15.5182 8.50798 15.9246 8.91441 16.4259 8.91441C16.9273 8.91441 17.3337 8.50798 17.3337 8.00662V5.00059C17.3337 4.18521 17.0036 3.40245 16.4425 2.88061C15.8813 2.32615 15.122 2 14.2968 2H10.0384C9.21316 2 8.42091 2.32615 7.89275 2.88061C7.33157 3.43507 7.00146 4.18521 7.00146 5.00059V8.00662C7.00146 8.50798 7.40789 8.91441 7.90925 8.91441C8.41061 8.91441 8.81704 8.50798 8.81704 8.00662V5.00059Z" fill="black"/>
<path d="M18.5013 10.5029C18.1712 10.1886 17.709 10.0001 17.2139 10.0001H6.81557C6.32042 10.0001 5.85827 10.1886 5.52817 10.5029C5.19806 10.8172 5 11.2572 5 11.7287V14.3372C5 16.1915 5.79225 17.8572 7.04665 19.0515C8.30104 20.2458 10.0836 21.0001 11.9982 21.0001C13.9458 21.0001 15.6954 20.2458 16.9498 19.0515C18.2042 17.8572 18.9964 16.1601 18.9964 14.3372V11.7287C19.0294 11.2572 18.8314 10.8172 18.5013 10.5029ZM17.2139 14.3372C17.2139 15.6887 16.6197 16.9458 15.6954 17.8258C14.7381 18.7058 13.4507 19.2715 12.0312 19.2715C10.6118 19.2715 9.29136 18.7058 8.36706 17.8258C7.44277 16.9144 6.84858 15.6887 6.84858 14.3372V11.7287H17.2139V14.3372Z" fill="black"/>
<ellipse cx="12" cy="15.0017" rx="1" ry="1" fill="black"/>
</g>
</svg>
